<svg viewBox="0 0 488 144" fill="none" xmlns="http://www.w3.org/2000/svg">
<g clip-path="url(#clip0_56132_334087)">
<path d="M57.7163 135.77C57.7163 136.862 58.1515 137.908 58.9261 138.68C59.7007 139.451 60.7512 139.885 61.8467 139.885H74.2378C75.3333 139.885 76.3838 139.451 77.1584 138.68C77.933 137.908 78.3682 136.862 78.3682 135.77V71.199C93.7204 68.8503 107.807 61.3505 118.298 49.9408C128.788 38.5312 135.053 23.8956 136.056 8.45614C136.088 7.89721 136.005 7.33765 135.812 6.81182C135.619 6.28598 135.32 5.80495 134.934 5.39827C134.548 4.99158 134.082 4.66782 133.566 4.44685C133.049 4.22588 132.493 4.11238 131.931 4.11329H119.517C118.475 4.11757 117.473 4.51284 116.711 5.22032C115.948 5.92779 115.482 6.89547 115.404 7.93043C114.441 19.7837 109.033 30.8415 100.258 38.9041C91.4819 46.9667 79.9808 51.4433 68.0422 51.4433C56.1037 51.4433 44.6026 46.9667 35.8268 38.9041C27.051 30.8415 21.6437 19.7837 20.6806 7.93043C20.6027 6.89547 20.136 5.92779 19.3737 5.22032C18.6113 4.51284 17.6093 4.11757 16.5674 4.11329H4.11317C3.55114 4.11238 2.99486 4.22588 2.47846 4.44685C1.96206 4.66782 1.49644 4.99158 1.11019 5.39827C0.723945 5.80495 0.425208 6.28598 0.232324 6.81182C0.0394392 7.33765 -0.0435262 7.89721 -0.0114765 8.45614C0.987993 23.9054 7.25645 38.5509 17.7553 49.966C28.2541 61.3811 42.3532 68.8806 57.7163 71.2219V135.77Z" fill="url(#paint0_linear_56132_334087)"/>
<path d="M208.509 0C194.214 0 180.239 4.22273 168.352 12.1342C156.465 20.0457 147.201 31.2905 141.73 44.4468C136.259 57.6031 134.828 72.0799 137.617 86.0465C140.406 100.013 147.29 112.842 157.399 122.912C167.507 132.981 180.387 139.838 194.408 142.617C208.429 145.395 222.963 143.969 236.17 138.519C249.378 133.07 260.667 123.841 268.609 112.001C276.552 100.161 280.791 86.2402 280.791 72C280.791 52.9044 273.176 34.5909 259.62 21.0883C246.065 7.5857 227.68 0 208.509 0ZM208.509 123.429C198.298 123.429 188.316 120.412 179.826 114.761C171.335 109.11 164.718 101.078 160.81 91.6809C156.902 82.2835 155.88 71.9429 157.872 61.9668C159.864 51.9906 164.781 42.8269 172.002 35.6345C179.222 28.4421 188.422 23.544 198.437 21.5596C208.452 19.5752 218.833 20.5937 228.267 24.4862C237.701 28.3787 245.765 34.9704 251.438 43.4278C257.111 51.8852 260.139 61.8284 260.139 72C260.139 85.6397 254.7 98.7208 245.017 108.365C235.335 118.01 222.203 123.429 208.509 123.429Z" fill="url(#paint1_linear_56132_334087)"/>
<path d="M317.999 71.999C317.999 84.5506 323.005 96.588 331.915 105.463C340.825 114.339 352.909 119.325 365.51 119.325C378.11 119.325 390.195 114.339 399.105 105.463C408.015 96.588 413.021 84.5506 413.021 71.999V8.22757C413.02 7.68754 413.126 7.15266 413.333 6.65353C413.54 6.1544 413.844 5.70079 414.227 5.31867C414.61 4.93655 415.065 4.63341 415.565 4.42657C416.066 4.21974 416.603 4.11328 417.145 4.11328H429.554C430.096 4.11328 430.633 4.21974 431.133 4.42657C431.634 4.63341 432.089 4.93655 432.472 5.31867C432.855 5.70079 433.159 6.1544 433.366 6.65353C433.573 7.15266 433.679 7.68754 433.678 8.22757V71.999C433.678 90.0079 426.496 107.279 413.712 120.014C400.928 132.748 383.589 139.902 365.51 139.902C347.43 139.902 330.091 132.748 317.307 120.014C304.523 107.279 297.341 90.0079 297.341 71.999V8.22757C297.34 7.68781 297.445 7.15306 297.652 6.65396C297.858 6.15486 298.161 5.70121 298.544 5.31901C298.926 4.93682 299.381 4.63358 299.881 4.42668C300.382 4.21978 300.918 4.11328 301.46 4.11328H313.892C314.434 4.11328 314.97 4.21974 315.471 4.42657C315.972 4.63341 316.427 4.93655 316.81 5.31867C317.193 5.70079 317.497 6.1544 317.704 6.65353C317.911 7.15266 318.017 7.68754 318.016 8.22757L317.999 71.999Z" fill="url(#paint2_linear_56132_334087)"/>
<path d="M460.049 32.4769C458.099 32.4775 456.194 33.0539 454.573 34.1331C452.953 35.2123 451.69 36.7458 450.944 38.5399C450.199 40.334 450.004 42.3081 450.385 44.2124C450.765 46.1167 451.704 47.8659 453.083 49.2387C454.462 50.6115 456.218 51.5463 458.13 51.9249C460.042 52.3034 462.023 52.1088 463.824 51.3656C465.625 50.6224 467.164 49.364 468.247 47.7495C469.33 46.1349 469.908 44.2368 469.908 42.2951C469.908 41.0055 469.653 39.7285 469.158 38.5371C468.662 37.3458 467.936 36.2633 467.02 35.3515C466.105 34.4398 465.018 33.7166 463.821 33.2234C462.625 32.7302 461.343 32.4765 460.049 32.4769ZM460.049 47.7496C458.966 47.7496 457.907 47.4297 457.006 46.8304C456.106 46.231 455.404 45.3792 454.99 44.3825C454.575 43.3858 454.467 42.289 454.678 41.231C454.889 40.1729 455.411 39.201 456.177 38.4381C456.942 37.6753 457.918 37.1558 458.98 36.9454C460.043 36.7349 461.144 36.8429 462.144 37.2558C463.145 37.6686 464 38.3677 464.602 39.2647C465.203 40.1617 465.524 41.2163 465.524 42.2951C465.524 43.7417 464.948 45.1291 463.921 46.152C462.894 47.175 461.501 47.7496 460.049 47.7496ZM467.17 70.6587C466.629 70.6587 466.099 70.8187 465.649 71.1184C465.199 71.418 464.848 71.844 464.641 72.3423C464.434 72.8407 464.379 73.389 464.485 73.9181C464.591 74.4471 464.851 74.9331 465.234 75.3145C465.617 75.6959 466.105 75.9556 466.636 76.0609C467.167 76.1661 467.718 76.1121 468.218 75.9057C468.718 75.6993 469.146 75.3497 469.447 74.9012C469.748 74.4527 469.908 73.9254 469.908 73.386C469.908 72.6637 469.621 71.971 469.108 71.4597C468.596 70.9484 467.901 70.6603 467.176 70.6587H467.17ZM466.2 53.6284L464.633 55.1921C464.45 55.3777 464.338 55.6224 464.319 55.8822C464.301 56.1421 464.375 56.4001 464.53 56.6102C465.108 57.4286 465.449 58.3896 465.516 59.3882C465.582 60.3867 465.372 61.3843 464.908 62.2716C464.443 63.159 463.742 63.902 462.882 64.4193C462.022 64.9366 461.036 65.2082 460.031 65.2045C459.027 65.2007 458.043 64.9217 457.186 64.398C456.33 63.8743 455.635 63.1261 455.178 62.2353C454.72 61.3445 454.517 60.3454 454.591 59.3474C454.665 58.3494 455.013 57.3909 455.598 56.5769C455.745 56.3653 455.812 56.1088 455.788 55.8526C455.763 55.5964 455.649 55.3571 455.464 55.1769L453.906 53.6224C453.797 53.5138 453.667 53.4293 453.523 53.3745C453.379 53.3197 453.225 53.2959 453.071 53.3044C452.917 53.313 452.766 53.3539 452.63 53.4243C452.493 53.4948 452.372 53.5932 452.276 53.7133C451.142 55.1637 450.439 56.9023 450.248 58.7311C450.057 60.5598 450.385 62.4053 451.196 64.0572C452.006 65.7092 453.266 67.1013 454.831 68.0751C456.397 69.0488 458.206 69.5651 460.052 69.5651C461.897 69.5651 463.706 69.0488 465.272 68.0751C466.838 67.1013 468.097 65.7092 468.908 64.0572C469.718 62.4053 470.046 60.5598 469.855 58.7311C469.664 56.9023 468.962 55.1637 467.827 53.7133C467.731 53.5947 467.611 53.4976 467.474 53.4284C467.338 53.3591 467.189 53.3191 467.036 53.3111C466.883 53.3031 466.73 53.3273 466.587 53.3819C466.444 53.4366 466.314 53.5206 466.206 53.6284H466.2ZM457.858 8.47692H468.81C469.1 8.47692 469.379 8.36198 469.584 8.1574C469.79 7.95281 469.905 7.67533 469.905 7.38601V5.20419C469.905 4.91486 469.79 4.63739 469.584 4.4328C469.379 4.22822 469.1 4.11328 468.81 4.11328H457.858C456.335 4.11191 454.845 4.56312 453.581 5.40924C452.316 6.25536 451.333 7.45795 450.758 8.86329C450.183 10.2686 450.041 11.8129 450.352 13.2986C450.662 14.7844 451.411 16.1442 452.501 17.2042C451.35 18.3218 450.581 19.7724 450.304 21.3498C450.027 22.9273 450.256 24.5516 450.959 25.9921C450.737 26.0611 450.543 26.1988 450.405 26.3852C450.267 26.5716 450.192 26.7969 450.192 27.0284V29.2102C450.192 29.4996 450.307 29.7771 450.513 29.9816C450.718 30.1862 450.997 30.3012 451.287 30.3012H468.813C469.104 30.3012 469.382 30.1862 469.587 29.9816C469.793 29.7771 469.908 29.4996 469.908 29.2102V27.0284C469.908 26.7391 469.793 26.4616 469.587 26.257C469.382 26.0525 469.104 25.9375 468.813 25.9375H457.861C456.99 25.9375 456.154 25.5927 455.538 24.979C454.922 24.3652 454.576 23.5328 454.576 22.6648C454.576 21.7968 454.922 20.9644 455.538 20.3506C456.154 19.7369 456.99 19.3921 457.861 19.3921H468.813C469.104 19.3921 469.382 19.2771 469.587 19.0726C469.793 18.868 469.908 18.5905 469.908 18.3012V16.1193C469.908 15.83 469.793 15.5525 469.587 15.348C469.382 15.1434 469.104 15.0284 468.813 15.0284H457.861C456.99 15.0284 456.154 14.6836 455.538 14.0699C454.922 13.4561 454.576 12.6237 454.576 11.7557C454.576 10.8877 454.922 10.0553 455.538 9.44154C456.154 8.82778 456.99 8.48298 457.861 8.48298L457.858 8.47692Z" fill="#B8B8BF"/>
</g>
<defs>
<linearGradient id="paint0_linear_56132_334087" x1="68.0422" y1="139.885" x2="68.0422" y2="4.11328" gradientUnits="userSpaceOnUse">
<stop stop-color="#973BED"/>
<stop offset="1" stop-color="#007CFF"/>
</linearGradient>
<linearGradient id="paint1_linear_56132_334087" x1="208.509" y1="144" x2="208.509" y2="0" gradientUnits="userSpaceOnUse">
<stop stop-color="#FFC800"/>
<stop offset="1" stop-color="#FF00FF"/>
</linearGradient>
<linearGradient id="paint2_linear_56132_334087" x1="365.51" y1="139.885" x2="365.51" y2="4.11328" gradientUnits="userSpaceOnUse">
<stop stop-color="#00E0ED"/>
<stop offset="1" stop-color="#00DA72"/>
</linearGradient>
<clipPath id="clip0_56132_334087">
<rect width="487.385" height="144" fill="white"/>
</clipPath>
</defs>
</svg>
